<mxfile host="app.diagrams.net" modified="2024-01-06T16:17:50.965Z" agent="Mozilla/5.0 (Windows NT 10.0; Win64; x64) AppleWebKit/537.36 (KHTML, like Gecko) Chrome/120.0.0.0 Safari/537.36" etag="ZydeOkYykMLOUPoBhsJV" version="22.1.16" type="device">
  <diagram name="Page-1" id="2YBvvXClWsGukQMizWep">
    <mxGraphModel dx="1426" dy="759" grid="1" gridSize="10" guides="1" tooltips="1" connect="1" arrows="1" fold="1" page="1" pageScale="1" pageWidth="850" pageHeight="1100" math="0" shadow="0">
      <root>
        <mxCell id="0" />
        <mxCell id="1" parent="0" />
        <mxCell id="9J51oii0Vci6BszqI7Mn-30" value="Click RequestRefund button" style="edgeStyle=orthogonalEdgeStyle;rounded=0;orthogonalLoop=1;jettySize=auto;html=1;endArrow=none;endFill=0;" edge="1" parent="1" source="J0i74tjH8cRKO-exs7It-1" target="J0i74tjH8cRKO-exs7It-6">
          <mxGeometry y="10" relative="1" as="geometry">
            <mxPoint as="offset" />
          </mxGeometry>
        </mxCell>
        <mxCell id="J0i74tjH8cRKO-exs7It-1" value="Member&lt;br&gt;" style="shape=umlActor;verticalLabelPosition=bottom;verticalAlign=top;html=1;outlineConnect=0;" parent="1" vertex="1">
          <mxGeometry x="210" y="310" width="30" height="60" as="geometry" />
        </mxCell>
        <mxCell id="9J51oii0Vci6BszqI7Mn-6" style="edgeStyle=orthogonalEdgeStyle;rounded=0;orthogonalLoop=1;jettySize=auto;html=1;" edge="1" parent="1" source="J0i74tjH8cRKO-exs7It-6" target="9J51oii0Vci6BszqI7Mn-5">
          <mxGeometry relative="1" as="geometry" />
        </mxCell>
        <mxCell id="J0i74tjH8cRKO-exs7It-6" value="Order list page" style="shape=umlBoundary;whiteSpace=wrap;html=1;" parent="1" vertex="1">
          <mxGeometry x="480" y="300" width="100" height="80" as="geometry" />
        </mxCell>
        <mxCell id="J0i74tjH8cRKO-exs7It-10" value="Display" style="ellipse;shape=umlControl;whiteSpace=wrap;html=1;" parent="1" vertex="1">
          <mxGeometry x="345" y="505" width="80" height="90" as="geometry" />
        </mxCell>
        <mxCell id="J0i74tjH8cRKO-exs7It-44" style="rounded=0;orthogonalLoop=1;jettySize=auto;html=1;endArrow=none;endFill=0;" parent="1" source="J0i74tjH8cRKO-exs7It-15" target="J0i74tjH8cRKO-exs7It-31" edge="1">
          <mxGeometry relative="1" as="geometry" />
        </mxCell>
        <mxCell id="J0i74tjH8cRKO-exs7It-45" style="edgeStyle=orthogonalEdgeStyle;rounded=0;orthogonalLoop=1;jettySize=auto;html=1;endArrow=none;endFill=0;entryX=-0.001;entryY=0.602;entryDx=0;entryDy=0;entryPerimeter=0;" parent="1" edge="1" target="J0i74tjH8cRKO-exs7It-30" source="J0i74tjH8cRKO-exs7It-15">
          <mxGeometry relative="1" as="geometry">
            <mxPoint x="549.13" y="742.77" as="sourcePoint" />
            <mxPoint x="726.1318035106291" y="902.77" as="targetPoint" />
            <Array as="points">
              <mxPoint x="549" y="829" />
            </Array>
          </mxGeometry>
        </mxCell>
        <mxCell id="9J51oii0Vci6BszqI7Mn-22" style="rounded=0;orthogonalLoop=1;jettySize=auto;html=1;endArrow=classic;endFill=1;" edge="1" parent="1" source="J0i74tjH8cRKO-exs7It-15" target="J0i74tjH8cRKO-exs7It-38">
          <mxGeometry relative="1" as="geometry" />
        </mxCell>
        <mxCell id="J0i74tjH8cRKO-exs7It-15" value="Fill refund form&lt;br&gt;page" style="shape=umlBoundary;whiteSpace=wrap;html=1;" parent="1" vertex="1">
          <mxGeometry x="492.38" y="595" width="110" height="90" as="geometry" />
        </mxCell>
        <mxCell id="J0i74tjH8cRKO-exs7It-24" style="edgeStyle=orthogonalEdgeStyle;rounded=0;orthogonalLoop=1;jettySize=auto;html=1;entryX=0;entryY=0.363;entryDx=0;entryDy=0;entryPerimeter=0;" parent="1" source="J0i74tjH8cRKO-exs7It-10" target="J0i74tjH8cRKO-exs7It-15" edge="1">
          <mxGeometry relative="1" as="geometry">
            <mxPoint x="467.38" y="622.77" as="sourcePoint" />
            <Array as="points">
              <mxPoint x="385" y="628" />
            </Array>
          </mxGeometry>
        </mxCell>
        <mxCell id="9J51oii0Vci6BszqI7Mn-18" value="No" style="rounded=0;orthogonalLoop=1;jettySize=auto;html=1;" edge="1" parent="1" source="J0i74tjH8cRKO-exs7It-30" target="9J51oii0Vci6BszqI7Mn-16">
          <mxGeometry relative="1" as="geometry" />
        </mxCell>
        <mxCell id="J0i74tjH8cRKO-exs7It-30" value="Any reason for refund?" style="ellipse;shape=umlControl;whiteSpace=wrap;html=1;" parent="1" vertex="1">
          <mxGeometry x="766.13" y="762.77" width="95" height="110" as="geometry" />
        </mxCell>
        <mxCell id="J0i74tjH8cRKO-exs7It-35" value="Yes" style="rounded=0;orthogonalLoop=1;jettySize=auto;html=1;align=left;exitX=0.396;exitY=0.157;exitDx=0;exitDy=0;exitPerimeter=0;" parent="1" source="J0i74tjH8cRKO-exs7It-31" target="J0i74tjH8cRKO-exs7It-52" edge="1">
          <mxGeometry x="0.125" y="8" relative="1" as="geometry">
            <mxPoint x="758.5990367548729" y="557.77" as="targetPoint" />
            <mxPoint as="offset" />
          </mxGeometry>
        </mxCell>
        <mxCell id="9J51oii0Vci6BszqI7Mn-17" value="No" style="rounded=0;orthogonalLoop=1;jettySize=auto;html=1;" edge="1" parent="1" source="J0i74tjH8cRKO-exs7It-31" target="9J51oii0Vci6BszqI7Mn-16">
          <mxGeometry relative="1" as="geometry" />
        </mxCell>
        <mxCell id="J0i74tjH8cRKO-exs7It-31" value="Any description?" style="ellipse;shape=umlControl;whiteSpace=wrap;html=1;" parent="1" vertex="1">
          <mxGeometry x="710" y="570" width="102.5" height="110" as="geometry" />
        </mxCell>
        <mxCell id="J0i74tjH8cRKO-exs7It-34" value="Yes" style="rounded=0;orthogonalLoop=1;jettySize=auto;html=1;" parent="1" target="J0i74tjH8cRKO-exs7It-31" edge="1">
          <mxGeometry x="-0.0201" y="15" relative="1" as="geometry">
            <mxPoint x="803.63" y="792.77" as="sourcePoint" />
            <mxPoint x="1073.13" y="644.77" as="targetPoint" />
            <mxPoint as="offset" />
            <Array as="points" />
          </mxGeometry>
        </mxCell>
        <mxCell id="J0i74tjH8cRKO-exs7It-38" value="Display confirmation message" style="ellipse;shape=umlControl;whiteSpace=wrap;html=1;" parent="1" vertex="1">
          <mxGeometry x="650" y="380" width="95" height="110" as="geometry" />
        </mxCell>
        <mxCell id="J0i74tjH8cRKO-exs7It-53" value="Click &lt;br&gt;Confirm button" style="rounded=0;orthogonalLoop=1;jettySize=auto;html=1;" parent="1" source="J0i74tjH8cRKO-exs7It-38" target="J0i74tjH8cRKO-exs7It-52" edge="1">
          <mxGeometry relative="1" as="geometry">
            <mxPoint x="810.0272399999999" y="520.0289" as="sourcePoint" />
            <mxPoint x="897.503390373076" y="396.4025330153654" as="targetPoint" />
          </mxGeometry>
        </mxCell>
        <mxCell id="J0i74tjH8cRKO-exs7It-56" value="Invoke" style="rounded=0;orthogonalLoop=1;jettySize=auto;html=1;" parent="1" source="J0i74tjH8cRKO-exs7It-52" target="J0i74tjH8cRKO-exs7It-54" edge="1">
          <mxGeometry relative="1" as="geometry" />
        </mxCell>
        <mxCell id="J0i74tjH8cRKO-exs7It-52" value="Add refund request to queue" style="ellipse;shape=umlControl;whiteSpace=wrap;html=1;" parent="1" vertex="1">
          <mxGeometry x="897.5" y="285" width="95" height="110" as="geometry" />
        </mxCell>
        <mxCell id="J0i74tjH8cRKO-exs7It-54" value="Process refund request" style="ellipse;whiteSpace=wrap;html=1;" parent="1" vertex="1">
          <mxGeometry x="1097.5" y="200" width="140" height="70" as="geometry" />
        </mxCell>
        <mxCell id="J0i74tjH8cRKO-exs7It-55" value="(from administrator)" style="text;html=1;align=center;verticalAlign=middle;resizable=0;points=[];autosize=1;strokeColor=none;fillColor=none;" parent="1" vertex="1">
          <mxGeometry x="1107.5" y="280" width="130" height="30" as="geometry" />
        </mxCell>
        <mxCell id="J0i74tjH8cRKO-exs7It-58" style="rounded=0;orthogonalLoop=1;jettySize=auto;html=1;endArrow=none;endFill=0;exitX=0.5;exitY=0.155;exitDx=0;exitDy=0;exitPerimeter=0;" parent="1" source="J0i74tjH8cRKO-exs7It-52" target="9J51oii0Vci6BszqI7Mn-1" edge="1">
          <mxGeometry relative="1" as="geometry">
            <mxPoint x="945.0100000000002" y="218.01999999999998" as="targetPoint" />
          </mxGeometry>
        </mxCell>
        <mxCell id="9J51oii0Vci6BszqI7Mn-1" value="Refund queue" style="ellipse;shape=umlEntity;whiteSpace=wrap;html=1;" vertex="1" parent="1">
          <mxGeometry x="905" y="130" width="80" height="80" as="geometry" />
        </mxCell>
        <mxCell id="9J51oii0Vci6BszqI7Mn-8" style="edgeStyle=orthogonalEdgeStyle;rounded=0;orthogonalLoop=1;jettySize=auto;html=1;endArrow=none;endFill=0;" edge="1" parent="1" source="9J51oii0Vci6BszqI7Mn-5" target="9J51oii0Vci6BszqI7Mn-7">
          <mxGeometry relative="1" as="geometry" />
        </mxCell>
        <mxCell id="9J51oii0Vci6BszqI7Mn-5" value="Retrieve for Member" style="ellipse;shape=umlControl;whiteSpace=wrap;html=1;" vertex="1" parent="1">
          <mxGeometry x="475" y="140" width="110" height="110" as="geometry" />
        </mxCell>
        <mxCell id="9J51oii0Vci6BszqI7Mn-7" value="Order list" style="ellipse;shape=umlEntity;whiteSpace=wrap;html=1;" vertex="1" parent="1">
          <mxGeometry x="320" y="152.5" width="90" height="85" as="geometry" />
        </mxCell>
        <mxCell id="9J51oii0Vci6BszqI7Mn-12" value="Yes" style="edgeStyle=orthogonalEdgeStyle;rounded=0;orthogonalLoop=1;jettySize=auto;html=1;" edge="1" parent="1" source="9J51oii0Vci6BszqI7Mn-11" target="J0i74tjH8cRKO-exs7It-10">
          <mxGeometry relative="1" as="geometry">
            <Array as="points">
              <mxPoint x="530" y="560" />
            </Array>
          </mxGeometry>
        </mxCell>
        <mxCell id="9J51oii0Vci6BszqI7Mn-11" value="Is order eligible for refund?" style="ellipse;shape=umlControl;whiteSpace=wrap;html=1;" vertex="1" parent="1">
          <mxGeometry x="480" y="430" width="100" height="110" as="geometry" />
        </mxCell>
        <mxCell id="9J51oii0Vci6BszqI7Mn-15" value="" style="rounded=0;orthogonalLoop=1;jettySize=auto;html=1;entryX=0.5;entryY=0.136;entryDx=0;entryDy=0;entryPerimeter=0;" edge="1" parent="1" source="J0i74tjH8cRKO-exs7It-6" target="9J51oii0Vci6BszqI7Mn-11">
          <mxGeometry relative="1" as="geometry" />
        </mxCell>
        <mxCell id="9J51oii0Vci6BszqI7Mn-20" style="edgeStyle=orthogonalEdgeStyle;rounded=0;orthogonalLoop=1;jettySize=auto;html=1;" edge="1" parent="1" source="9J51oii0Vci6BszqI7Mn-16" target="J0i74tjH8cRKO-exs7It-15">
          <mxGeometry relative="1" as="geometry">
            <Array as="points">
              <mxPoint x="998" y="890" />
              <mxPoint x="530" y="890" />
            </Array>
          </mxGeometry>
        </mxCell>
        <mxCell id="9J51oii0Vci6BszqI7Mn-16" value="Display with validation error message" style="ellipse;shape=umlControl;whiteSpace=wrap;html=1;" vertex="1" parent="1">
          <mxGeometry x="950" y="667.77" width="95" height="110" as="geometry" />
        </mxCell>
      </root>
    </mxGraphModel>
  </diagram>
</mxfile>
